<?xml version="1.0" encoding="utf-8"?>
<!-- Generator: Adobe Illustrator 27.5.0, SVG Export Plug-In . SVG Version: 6.00 Build 0)  -->
<svg version="1.1" id="Layer_1" xmlns="http://www.w3.org/2000/svg" xmlns:xlink="http://www.w3.org/1999/xlink" x="0px" y="0px"
	 viewBox="0 0 200 24" style="enable-background:new 0 0 200 24;" xml:space="preserve">
<style type="text/css">
	.st0{fill:#FFFFFF;}
</style>
<g id="Calque_2">
	<g>
		<path class="st0" d="M19.3,9.5v14h-0.2c-0.6,0-1.2-0.1-1.7-0.4c-0.5-0.2-1-0.6-1.4-0.9c-0.4-0.4-0.7-0.9-1-1.4
			c-0.2-0.5-0.4-1.1-0.4-1.7V17H5c-0.6,0-1.2-0.1-1.7-0.4c-0.5-0.2-1-0.6-1.4-0.9c-0.4-0.4-0.7-0.9-0.9-1.4
			c-0.2-0.5-0.4-1.1-0.4-1.7v-3c0-1.3,0.2-2.5,0.7-3.6c0.5-1.1,1.2-2.1,2-3c0.8-0.8,1.8-1.5,3-2c1.1-0.5,2.4-0.7,3.6-0.7
			s2.5,0.2,3.6,0.7c1.1,0.5,2.1,1.2,3,2c0.8,0.8,1.5,1.8,2,3C19,7,19.3,8.3,19.3,9.5z M5.3,19.1c0,0.6-0.1,1.2-0.4,1.7
			c-0.2,0.5-0.6,1-0.9,1.4S3.1,23,2.6,23.2c-0.5,0.2-1.1,0.4-1.7,0.4H0.6v-9c0.4,0.9,1,1.5,1.8,2.1c0.8,0.5,1.7,0.8,2.6,0.8h0.2
			V19.1z M14.6,12.3V9.5c0-0.7-0.1-1.3-0.4-1.8c-0.2-0.6-0.6-1.1-1-1.5c-0.4-0.4-0.9-0.8-1.5-1C11.2,5,10.6,4.8,9.9,4.8
			C9.3,4.8,8.7,5,8.1,5.2c-0.6,0.2-1.1,0.6-1.5,1c-0.4,0.4-0.8,0.9-1,1.5C5.4,8.3,5.3,8.9,5.3,9.5v2.8H14.6z"/>
		<path class="st0" d="M38.9,0.2v0.2c0,0.6-0.1,1.2-0.4,1.7c-0.2,0.5-0.6,1-1,1.4c-0.4,0.4-0.9,0.7-1.4,1c-0.5,0.2-1.1,0.4-1.7,0.4
			h-7.2v4.4H27c-0.9,0-1.8,0.3-2.6,0.8c-0.8,0.5-1.4,1.2-1.8,2.1V4.6c0-0.6,0.1-1.2,0.4-1.7c0.2-0.5,0.6-1,0.9-1.4
			c0.4-0.4,0.9-0.7,1.4-1c0.5-0.2,1.1-0.4,1.7-0.4H38.9z M36.6,9.8V10c0,0.6-0.1,1.2-0.4,1.7c-0.2,0.5-0.6,1-1,1.4
			c-0.4,0.4-0.9,0.7-1.4,0.9c-0.5,0.2-1.1,0.3-1.7,0.3h-4.9v5.7c0,0.5-0.1,0.9-0.3,1.4c-0.2,0.4-0.4,0.8-0.7,1.1
			c-0.3,0.3-0.7,0.6-1.1,0.7c-0.4,0.2-0.9,0.3-1.4,0.3h-1.2v-9.3c0-0.6,0.1-1.2,0.4-1.7c0.2-0.5,0.6-1,0.9-1.4
			c0.4-0.4,0.9-0.7,1.4-1c0.5-0.2,1.1-0.4,1.7-0.4H36.6z"/>
		<path class="st0" d="M59.9,7.2v2.4c0,0.8-0.1,1.6-0.4,2.3c-0.3,0.7-0.6,1.4-1.1,2c-0.6-0.6-1.2-1.1-1.9-1.5
			c-0.7-0.4-1.5-0.7-2.3-0.8c0.7-0.5,1.1-1.1,1.1-2V7.2c0-0.7-0.2-1.2-0.7-1.7c-0.5-0.5-1-0.7-1.7-0.7h-6.7H46
			c-0.6,0-1.2-0.1-1.7-0.3c-0.5-0.2-1-0.5-1.4-0.9c-0.4-0.4-0.7-0.9-0.9-1.4c-0.2-0.5-0.4-1.1-0.4-1.7V0.2h11.4c1,0,1.9,0.2,2.7,0.6
			c0.9,0.4,1.6,0.9,2.2,1.5c0.6,0.6,1.1,1.4,1.5,2.2S59.9,6.2,59.9,7.2z M59.9,18.9v4.7h-1.2c-0.5,0-0.9-0.1-1.3-0.3
			c-0.4-0.2-0.8-0.4-1.1-0.7c-0.3-0.3-0.6-0.7-0.8-1.1c-0.2-0.4-0.3-0.9-0.3-1.4v-1.1c0-0.7-0.2-1.2-0.7-1.7c-0.5-0.5-1-0.7-1.7-0.7
			h-6.7v7H46c-0.6,0-1.2-0.1-1.7-0.4c-0.5-0.2-1-0.6-1.4-0.9c-0.4-0.4-0.7-0.9-0.9-1.4c-0.2-0.5-0.4-1.1-0.4-1.7V2.5
			c0.4,0.9,1,1.5,1.8,2C44.2,5.1,45,5.3,46,5.3h0.2v6.6h6.7c1,0,1.9,0.2,2.7,0.5c0.9,0.4,1.6,0.9,2.2,1.5c0.6,0.6,1.1,1.4,1.5,2.2
			C59.7,17,59.9,17.9,59.9,18.9z"/>
		<path class="st0" d="M67.7,0.2v19.9c0,0.5-0.1,0.9-0.3,1.4c-0.2,0.4-0.4,0.8-0.8,1.1c-0.3,0.3-0.7,0.6-1.1,0.7
			c-0.4,0.2-0.9,0.3-1.3,0.3H63V4.6c0-0.6,0.1-1.2,0.4-1.7c0.2-0.5,0.6-1,1-1.4c0.4-0.4,0.9-0.7,1.4-1c0.5-0.2,1.1-0.4,1.7-0.4H67.7
			z"/>
		<path class="st0" d="M89.2,23.3v0.2h-9.4c-1.3,0-2.5-0.2-3.6-0.7c-1.1-0.5-2.1-1.2-3-2s-1.5-1.8-2-3c-0.5-1.1-0.7-2.4-0.7-3.6V9.5
			c0-1.3,0.2-2.5,0.7-3.6c0.5-1.1,1.1-2.1,2-3s1.8-1.5,3-2c1.1-0.5,2.3-0.7,3.6-0.7c1.3,0,2.5,0.2,3.6,0.7c1.1,0.5,2.1,1.2,3,2
			s1.5,1.8,2,3C89,7,89.2,8.3,89.2,9.5v4.7c0,1.9-0.5,3.6-1.5,5.1c-0.9-0.6-1.8-0.9-2.9-0.9h-2.9c0.8-0.4,1.5-1,1.9-1.7
			c0.5-0.8,0.7-1.6,0.7-2.5V9.5c0-0.7-0.1-1.3-0.4-1.8c-0.2-0.6-0.6-1.1-1-1.5c-0.4-0.4-0.9-0.8-1.5-1c-0.6-0.2-1.2-0.4-1.8-0.4
			c-0.7,0-1.3,0.1-1.8,0.4c-0.6,0.2-1.1,0.6-1.5,1c-0.4,0.4-0.8,0.9-1,1.5c-0.2,0.6-0.4,1.2-0.4,1.8v4.7c0,0.7,0.1,1.3,0.4,1.8
			c0.2,0.6,0.6,1.1,1,1.5c0.4,0.4,0.9,0.8,1.5,1c0.6,0.2,1.2,0.4,1.8,0.4h4.9c0.6,0,1.2,0.1,1.7,0.4c0.5,0.2,1,0.6,1.4,0.9
			c0.4,0.4,0.7,0.9,1,1.4C89.1,22.1,89.2,22.7,89.2,23.3z"/>
		<path class="st0" d="M96.9,14.2c0,0.7,0.1,1.3,0.4,1.8c0.2,0.6,0.6,1.1,1,1.5c0.4,0.4,0.9,0.8,1.5,1c0.6,0.2,1.2,0.4,1.8,0.4
			c0.6,0,1.2-0.1,1.8-0.4c0.6-0.2,1.1-0.6,1.5-1c0.4-0.4,0.7-0.9,1-1.5c0.2-0.6,0.4-1.2,0.4-1.8V9.5c0-0.6-0.1-1.2-0.4-1.8
			c-0.2-0.6-0.6-1.1-1-1.5c-0.4-0.4-0.9-0.7-1.5-1c-0.6-0.2-1.2-0.4-1.8-0.4c-0.9,0-1.7,0.2-2.5,0.7c-0.8,0.5-1.3,1.1-1.7,1.9V1.2
			c1.3-0.7,2.7-1,4.2-1c1.3,0,2.5,0.2,3.6,0.7c1.1,0.5,2.1,1.2,3,2s1.5,1.8,2,3c0.5,1.1,0.7,2.4,0.7,3.6v4.7c0,1.3-0.2,2.5-0.7,3.6
			c-0.5,1.1-1.2,2.1-2,3s-1.8,1.5-3,2c-1.1,0.5-2.3,0.7-3.6,0.7c-1.3,0-2.5-0.2-3.6-0.7c-1.1-0.5-2.1-1.2-3-2s-1.5-1.8-2-3
			c-0.5-1.1-0.7-2.4-0.7-3.6V9.5c0-1.7,0.4-3.3,1.2-4.7c0.8-1.4,2-2.6,3.4-3.4v8.1V14.2z"/>
		<path class="st0" d="M134.9,23.6h-1.2c-0.5,0-0.9-0.1-1.3-0.3c-0.4-0.2-0.8-0.4-1.1-0.7c-0.3-0.3-0.6-0.7-0.8-1.1
			c-0.2-0.4-0.3-0.9-0.3-1.4V9.5l-5.8,7.8l-10.5-14V0.2h1.8c0.5,0,1.1,0.1,1.6,0.4c0.5,0.2,0.9,0.6,1.3,1l6,7.9l6-7.9
			c0.3-0.5,0.7-0.8,1.2-1c0.5-0.2,1-0.4,1.6-0.4h1.7V23.6z M118.6,10.3V20c0,0.5-0.1,1-0.3,1.4c-0.2,0.4-0.4,0.8-0.7,1.1
			c-0.3,0.3-0.7,0.6-1.1,0.7c-0.4,0.2-0.9,0.3-1.4,0.3h-1.2V4.1L118.6,10.3z"/>
		<path class="st0" d="M171.2,23.6H170c-0.5,0-0.9-0.1-1.4-0.3c-0.4-0.2-0.8-0.4-1.1-0.8c-0.3-0.3-0.6-0.7-0.8-1.1
			c-0.2-0.4-0.3-0.9-0.3-1.4v-2.3c0-0.7-0.2-1.2-0.7-1.7c-0.5-0.5-1-0.7-1.7-0.7h-7v0.2v3.5c0,0.6-0.1,1.2-0.4,1.7
			c-0.2,0.5-0.6,1-0.9,1.4c-0.4,0.4-0.9,0.7-1.4,0.9c-0.5,0.2-1.1,0.4-1.7,0.4h-0.2V0.2h1.2c0.5,0,1,0.1,1.4,0.3
			c0.4,0.2,0.8,0.4,1.1,0.8c0.3,0.3,0.6,0.7,0.7,1.1c0.2,0.4,0.3,0.9,0.3,1.4v7h7c1,0,1.9,0.2,2.7,0.6c0.9,0.4,1.6,0.9,2.2,1.5
			c0.6,0.6,1.1,1.4,1.5,2.2c0.4,0.8,0.5,1.8,0.5,2.7V23.6z M171.2,8.4c0,0.8-0.1,1.6-0.4,2.3c-0.2,0.7-0.6,1.4-1.1,2
			c-1.2-1.2-2.6-2-4.3-2.3c0.3-0.2,0.6-0.5,0.8-0.8c0.2-0.3,0.3-0.7,0.3-1.1V4.6c0-0.6,0.1-1.2,0.4-1.7c0.2-0.5,0.6-1,0.9-1.4
			c0.4-0.4,0.9-0.7,1.4-0.9c0.5-0.2,1.1-0.4,1.7-0.4h0.2V8.4z"/>
		<path class="st0" d="M194,0.2l-12.9,21.1c-0.4,0.7-1,1.3-1.7,1.7c-0.7,0.4-1.5,0.6-2.3,0.6h-2.8l12.9-21.2c0.4-0.7,1-1.2,1.7-1.6
			s1.5-0.6,2.3-0.6H194z M189,0.2c-1,0.5-1.7,1.1-2.3,2l-1.6,2.7h-6.4c-0.6,0-1.2-0.1-1.7-0.4c-0.5-0.2-1-0.6-1.4-0.9
			c-0.4-0.4-0.7-0.9-1-1.4s-0.4-1.1-0.4-1.7V0.2H189z M194,23.3v0.2h-14.7c0.9-0.4,1.7-1.1,2.2-2l1.6-2.7h6.2h0.2
			c0.6,0,1.2,0.1,1.7,0.4c0.5,0.2,1,0.6,1.4,1c0.4,0.4,0.7,0.9,0.9,1.4C193.9,22.1,194,22.7,194,23.3z"/>
	</g>
</g>
</svg>
